#Comment line ignore any data following # character
#Hierarchical Translation and Rotation (.htr) file
[Header]		#Header keywords are followed by a single value
FileType htr		#Single word string
DataType HTRS		#Translation followed by rotation and scale data
FileVersion 1		#integer
NumSegments 15		#integer
NumFrames 9		#integer
DataFrameRate 60		#integer, data frame rate in this file
EulerRotationOrder ZYX
CalibrationUnits mm
RotationUnits Degrees
GlobalAxisofGravity Y
BoneLengthAxis Y
ScaleFactor 1.000000
[SegmentNames&Hierarchy]
#CHILD	PARENT
1cou	1buste
1buste	1bassin
1brasG	1buste
1brasD	1buste
1avbrasG	1brasG
1avbrasD	1brasD
1mainG	1avbrasG
1mainD	1avbrasD
1bassin	GLOBAL
1cuisseG	1bassin
1cuisseD	1bassin
1moletG	1cuisseG
1moletD	1cuisseD
1piedG	1moletG
1piedD	1moletD
[BasePosition]
#SegmentName Tx, Ty, Tz, Rx, Ry, Rz, BoneLength
1cou	0.000002	394.639771	0.000003	47.447697	-6.500580	2.097482	232.574402
1buste	0.331046	98.159424	9.920088	5.813737	-6.959647	-0.900074	394.639771
1brasG	222.293304	333.760773	-3.143221	-5.521868	-4.449825	-174.025208	338.016541
1brasD	-186.675308	347.235016	-30.968008	-5.508482	16.777920	169.824814	318.101379
1avbrasG	0.000004	338.016571	-0.000002	34.403133	17.432653	23.106703	253.821075
1avbrasD	-0.000007	318.101410	-0.000013	32.381824	-10.529597	-11.344105	276.946075
1mainG	0.000006	253.821091	-0.000001	-3.773718	-0.485368	-1.748444	73.639816
1mainD	-0.000031	276.946106	-0.000010	-3.909555	0.199285	0.225476	80.942635
1bassin	396.031860	1037.839600	833.112305	178.297836	19.764000	-179.799622	97.859962
1cuisseG	108.625954	-0.934603	-40.474510	172.403458	-4.353497	-0.165467	517.714233
1cuisseD	-106.972656	-1.326527	-48.733826	172.076172	-12.757409	2.045154	501.698334
1moletG	0.000006	517.714233	-0.000009	157.872192	5.331374	176.676331	488.075745
1moletD	-0.000005	501.698303	0.000003	156.316269	3.295414	-177.725830	511.880615
1piedG	0.000002	488.075745	-0.000006	99.880898	-0.000004	0.000000	242.425140
1piedD	-0.000009	511.880646	-0.000013	102.622849	0.000000	0.000000	237.138092
#Beginning of Data. Separated by tabs
[1cou]
#Fr	Tx	Ty	Tz	Rx	Ry	Rz	SF
50	-0.000027	-43.215820	0.000002	-23.312752	-12.393369	27.186674	0.974209
51	-0.000011	-42.960388	0.000006	-23.152256	-11.912254	26.298542	0.978584
52	0.000001	-42.602448	-0.000005	-23.213835	-11.465616	25.985043	0.982162
53	-0.000008	-42.236664	0.000016	-23.209967	-11.176788	25.693863	0.983869
54	-0.000004	-41.914368	-0.000016	-23.330919	-11.183458	26.110191	0.985910
55	-0.000004	-41.691925	-0.000003	-23.546576	-11.453123	27.179380	0.987405
56	0.000001	-42.243439	0.000005	-23.547045	-11.978387	28.184803	0.985107
57	-0.000029	-42.874695	-0.000002	-23.232672	-12.443923	29.520151	0.982661
58	0.000001	-43.502319	0.000003	-22.872684	-13.232909	30.782124	0.985869
[1buste]
#Fr	Tx	Ty	Tz	Rx	Ry	Rz	SF
50	5.838883	-12.793472	9.910746	6.768390	2.363412	-4.450438	0.890493
51	5.665968	-12.355515	8.290449	5.696588	1.713661	-4.300611	0.891140
52	5.554936	-11.953552	6.799662	4.709846	1.323437	-4.156296	0.892047
53	5.432925	-11.568092	5.260878	3.698144	1.090676	-3.979993	0.892974
54	5.431784	-11.236259	3.758534	2.708107	1.451048	-3.851412	0.893791
55	5.540938	-10.974976	2.333615	1.766871	2.195281	-3.802813	0.894354
56	5.798263	-10.998169	1.340192	1.111829	1.982603	-3.925274	0.892957
57	6.080614	-11.052490	0.323845	0.440516	2.067048	-4.057504	0.891357
58	6.203524	-11.051086	-1.229043	-0.570205	2.197774	-4.059307	0.889767
[1brasG]
#Fr	Tx	Ty	Tz	Rx	Ry	Rz	SF
50	-62.507172	-24.169861	42.955872	83.869797	19.855806	57.137085	0.909268
51	-63.000854	-22.700165	43.889404	86.110016	16.141338	56.821217	0.910542
52	-63.666107	-20.693481	45.012100	88.268814	12.438684	54.873070	0.910330
53	-64.606781	-18.119354	46.031410	90.565224	8.732123	52.637928	0.907949
54	-65.677887	-15.373566	47.310699	93.165215	5.147042	50.725662	0.904472
55	-66.697540	-12.918457	48.913902	95.963943	1.756693	48.987564	0.900938
56	-67.442322	-12.026184	50.589294	98.731239	-1.525059	47.271229	0.897363
57	-68.098618	-11.409760	52.170692	101.621727	-4.593903	45.548122	0.893051
58	-68.440247	-11.254425	53.494904	104.249649	-7.228465	43.904739	0.889992
[1brasD]
#Fr	Tx	Ty	Tz	Rx	Ry	Rz	SF
50	2.201569	-48.743011	54.844048	48.824047	-12.714998	8.446209	0.918376
51	2.464615	-46.652374	56.198135	53.678993	-12.272389	7.223671	0.916963
52	2.686707	-43.155212	56.914536	58.833858	-11.387202	5.451165	0.915372
53	2.277756	-39.941895	57.556915	64.092110	-10.052656	3.872587	0.911955
54	1.994629	-35.995300	56.840305	68.924622	-8.074049	2.986568	0.909861
55	2.104965	-32.030640	54.892406	73.308006	-5.597075	2.409522	0.907695
56	2.481888	-29.781097	55.271706	77.249756	-2.614395	1.434870	0.897671
57	2.920990	-26.657104	53.353401	80.080017	0.725418	-0.056031	0.895353
58	3.863647	-25.348419	50.891815	81.693497	4.632939	-1.792211	0.894992
[1avbrasG]
#Fr	Tx	Ty	Tz	Rx	Ry	Rz	SF
50	-0.000002	-30.668854	0.000015	19.947659	-9.876344	4.723307	1.114475
51	-0.000034	-30.238190	-0.000015	21.971085	-10.406539	5.583015	1.118229
52	-0.000014	-30.310059	0.000017	23.785259	-10.833965	6.308006	1.122595
53	0.000013	-31.114929	-0.000002	25.142960	-10.596963	7.422610	1.127465
54	-0.000012	-32.290131	0.000003	25.829683	-9.616557	8.987885	1.129452
55	-0.000005	-33.484467	0.000028	25.949568	-8.061076	10.816425	1.130917
56	0.000012	-34.693024	0.000008	25.707806	-6.568653	12.332823	1.132431
57	0.000001	-36.150726	-0.000030	25.284948	-5.683008	12.963578	1.132642
58	0.000003	-37.184540	-0.000021	24.983620	-5.494179	12.900425	1.134359
[1avbrasD]
#Fr	Tx	Ty	Tz	Rx	Ry	Rz	SF
50	0.000020	-25.964783	0.000019	19.291088	13.387302	6.222940	0.993480
51	-0.000003	-26.414124	0.000039	21.873207	13.458397	6.475655	0.993622
52	0.000032	-26.920410	0.000014	24.580574	13.113819	6.300602	0.994109
53	0.000004	-28.007202	0.000014	27.130251	12.284838	5.454634	0.994831
54	0.000017	-28.673340	0.000009	29.371096	11.262528	4.246444	0.998334
55	0.000027	-29.362274	0.000026	31.074493	10.171922	2.803481	1.004584
56	0.000026	-32.551025	0.000016	32.264755	9.206562	1.351546	1.008160
57	0.000009	-33.288574	0.000021	32.847149	7.460630	-1.043398	1.008726
58	0.000011	-33.403290	0.000044	33.235016	5.880498	-3.278131	1.008592
[1mainG]
#Fr	Tx	Ty	Tz	Rx	Ry	Rz	SF
50	-0.000003	29.056168	0.000031	0.987393	0.302106	1.167498	1.093261
51	-0.000004	30.008926	-0.000011	1.127052	0.313537	1.218421	1.094651
52	0.000026	31.117233	-0.000022	1.262016	0.321465	1.260505	1.097008
53	-0.000001	32.353287	0.000003	1.386311	0.325457	1.279653	1.100287
54	-0.000007	32.857559	-0.000009	1.478602	0.326312	1.272764	1.101121
55	0.000008	33.229446	-0.000003	1.543491	0.325515	1.244485	1.101889
56	0.000016	33.613815	-0.000025	1.582353	0.325085	1.213777	1.103086
57	0.000012	33.667435	0.000011	1.596571	0.323427	1.190108	1.103204
58	-0.000000	34.103195	0.000024	1.608960	0.319700	1.185342	1.104883
[1mainD]
#Fr	Tx	Ty	Tz	Rx	Ry	Rz	SF
50	0.000054	-1.805786	0.000010	0.711994	-0.106494	-0.692689	0.971347
51	0.000013	-1.766510	0.000030	0.850118	-0.110800	-0.702274	0.968827
52	0.000063	-1.631378	-0.000005	1.009270	-0.120620	-0.697835	0.966548
53	0.000046	-1.431732	-0.000006	1.169239	-0.129282	-0.678170	0.964756
54	0.000041	-0.461487	-0.000011	1.332569	-0.137167	-0.652669	0.966115
55	0.000061	1.269440	-0.000009	1.475732	-0.146965	-0.627875	0.970831
56	0.000057	2.259949	-0.000003	1.574571	-0.153196	-0.611846	0.973377
57	0.000033	2.416656	-0.000022	1.629108	-0.158030	-0.571532	0.973266
58	0.000016	2.379517	-0.000016	1.658202	-0.157307	-0.536131	0.972739
[1bassin]
#Fr	Tx	Ty	Tz	Rx	Ry	Rz	SF
50	-260.773682	-359.989868	-1025.121338	-127.766457	-52.322189	141.924194	0.894452
51	-271.181824	-364.462219	-1000.497192	-126.817001	-50.885944	140.489548	0.894789
52	-282.809753	-368.959717	-975.214111	-125.828453	-49.588882	139.130569	0.894607
53	-295.605042	-373.905334	-949.035950	-124.813187	-48.495895	137.979111	0.892615
54	-309.576263	-379.820496	-921.158386	-124.271698	-47.432613	137.469193	0.887723
55	-324.587341	-386.772827	-891.761047	-124.062973	-46.419987	137.353790	0.879345
56	-338.968811	-393.933960	-861.004639	-123.257584	-45.750942	135.953995	0.880977
57	-354.155518	-402.686279	-828.948242	-122.740784	-45.229374	134.933014	0.879674
58	-369.178833	-413.582275	-795.543091	-122.236359	-44.941776	134.172195	0.875757
[1cuisseG]
#Fr	Tx	Ty	Tz	Rx	Ry	Rz	SF
50	-9.807228	-0.249225	-11.300457	-32.657986	-27.712135	-20.437832	0.979242
51	-9.752098	-0.042101	-10.967178	-29.979546	-26.715809	-20.887310	0.978714
52	-9.859772	0.134841	-11.110023	-27.646996	-25.801716	-21.232122	0.981043
53	-10.281464	0.301489	-11.468731	-25.691111	-25.299532	-21.456430	0.983738
54	-11.074249	0.479843	-12.174713	-23.582766	-25.483202	-21.794312	0.984182
55	-12.317749	0.667049	-13.167969	-21.287584	-25.813723	-22.413338	0.985991
56	-12.082329	0.900377	-13.122490	-18.877480	-24.478134	-22.573324	0.988449
57	-12.282082	1.127288	-13.369263	-16.470909	-23.616262	-22.890842	0.989766
58	-12.792465	1.388743	-13.740753	-14.111799	-22.708197	-23.783916	0.989944
[1cuisseD]
#Fr	Tx	Ty	Tz	Rx	Ry	Rz	SF
50	4.834419	-2.432673	13.730305	-55.492580	-22.820911	-10.643480	1.059748
51	5.005524	-2.263558	12.916626	-54.583641	-22.227940	-11.086129	1.061031
52	5.084816	-2.083786	12.901680	-53.777962	-21.497171	-11.404062	1.062287
53	5.311256	-1.874205	13.504326	-53.097305	-20.620312	-11.778904	1.063508
54	5.750175	-1.698000	14.556305	-52.238270	-19.960619	-12.328916	1.065657
55	6.494675	-1.560606	16.050129	-51.217724	-19.411110	-12.869391	1.067891
56	6.316368	-1.545574	15.807373	-50.105247	-17.915232	-12.798372	1.069172
57	6.393227	-1.523397	16.171963	-48.878597	-16.624199	-12.646123	1.070728
58	6.739342	-1.409751	16.610096	-47.747066	-15.574126	-12.266129	1.071793
[1moletG]
#Fr	Tx	Ty	Tz	Rx	Ry	Rz	SF
50	0.000018	-10.746765	0.000005	-45.496479	-11.387080	-7.409147	0.906607
51	-0.000002	-11.020020	-0.000012	-43.165012	-15.042677	-5.297749	0.906615
52	-0.000005	-9.814484	0.000011	-40.927212	-18.628708	-3.255240	0.909415
53	0.000033	-8.418823	0.000003	-38.583450	-22.196371	-0.947301	0.915880
54	-0.000029	-8.189484	0.000009	-35.556648	-26.633528	1.516038	0.924915
55	0.000001	-7.252838	-0.000004	-32.156174	-30.924656	3.824627	0.936175
56	-0.000004	-5.980255	-0.000025	-28.274319	-35.454529	5.590490	0.943164
57	0.000009	-5.298035	0.000015	-24.326445	-37.621078	6.751297	0.950498
58	-0.000034	-5.206360	0.000036	-21.048717	-38.132126	6.940614	0.954802
[1moletD]
#Fr	Tx	Ty	Tz	Rx	Ry	Rz	SF
50	0.000018	29.975281	-0.000037	-79.550591	-5.135921	-29.885565	0.880733
51	-0.000001	30.619141	-0.000002	-80.112679	-4.831984	-27.941847	0.881605
52	-0.000030	31.249390	-0.000006	-80.689438	-4.273868	-25.369638	0.883017
53	-0.000015	31.862122	0.000013	-81.176796	-3.498674	-22.174440	0.885000
54	-0.000024	32.939941	0.000014	-81.606712	-2.469785	-18.487091	0.886190
55	0.000019	34.060852	0.000005	-81.922028	-1.107509	-14.445730	0.886874
56	0.000005	34.703491	0.000002	-82.082962	0.471699	-10.374464	0.886661
57	0.000025	35.484131	0.000009	-82.011345	2.275796	-5.567075	0.885653
58	0.000030	36.018372	-0.000030	-81.777229	4.307149	-0.231587	0.884426
[1piedG]
#Fr	Tx	Ty	Tz	Rx	Ry	Rz	SF
50	-0.000033	-45.583038	0.000006	5.448844	0.000000	-0.000001	1.020572
51	-0.000007	-45.578949	-0.000013	4.962842	-0.000002	-0.000006	1.020804
52	-0.000026	-44.212311	0.000029	5.180732	-0.000000	-0.000007	1.025884
53	-0.000031	-41.056946	0.000057	5.983047	0.000001	0.000001	1.027536
54	-0.000005	-36.647339	0.000001	7.396998	-0.000002	-0.000009	1.025146
55	0.000038	-31.151611	-0.000015	9.038528	-0.000004	-0.000011	1.028079
56	0.000019	-27.740082	0.000041	9.979386	-0.000000	-0.000002	1.028552
57	0.000006	-24.160797	0.000034	10.899956	-0.000003	-0.000003	1.031875
58	-0.000019	-22.059998	-0.000004	11.425281	-0.000001	-0.000007	1.032513
[1piedD]
#Fr	Tx	Ty	Tz	Rx	Ry	Rz	SF
50	-0.000023	-61.050476	-0.000005	30.386166	0.000001	0.000001	1.004896
51	0.000032	-60.604095	-0.000008	30.627836	-0.000003	-0.000002	0.999648
52	-0.000010	-59.881104	0.000043	30.784317	0.000000	-0.000001	0.993127
53	0.000014	-58.866547	0.000060	30.735130	-0.000001	-0.000003	0.987926
54	0.000045	-58.256989	0.000033	30.340071	-0.000001	0.000003	0.980202
55	0.000005	-57.907257	-0.000013	29.605162	-0.000002	-0.000003	0.971948
56	0.000006	-58.016296	0.000050	28.512913	0.000001	-0.000002	0.960388
57	0.000037	-58.531860	0.000008	27.281013	-0.000001	-0.000001	0.963230
58	-0.000016	-59.160339	-0.000011	26.314442	0.000000	-0.000000	0.963639
[EndOfFile]
